<svg xmlns="http://www.w3.org/2000/svg" xmlns:xlink="http://www.w3.org/1999/xlink" viewBox="0 0 1024 384"><defs><style>.cls-1{fill:none;}.cls-2{isolation:isolate;}.cls-3{mix-blend-mode:lighten;fill:url(#Áåçûìÿííûé_ãðàäèåíò_68);}.cls-11,.cls-13,.cls-4{opacity:0.2;}.cls-5{fill:#9ffff8;}.cls-12,.cls-13,.cls-6{fill:#42e8e0;}.cls-7{fill:#18b2a3;}.cls-8{opacity:0.1;}.cls-9{fill:#2fd3c7;}.cls-10{fill:#fff;}.cls-11{fill:#03002d;}.cls-12{opacity:0.4;}.cls-14{clip-path:url(#clip-path);}</style><radialGradient id="Áåçûìÿííûé_ãðàäèåíò_68" cx="529.9" cy="135.01" r="495.78" gradientTransform="translate(-440.55 -59.08) scale(1.88 1.34)" gradientUnits="userSpaceOnUse"><stop offset="0" stop-color="#453c9e"/><stop offset="0.15" stop-color="#352b85"/><stop offset="0.34" stop-color="#241b6c"/><stop offset="0.54" stop-color="#180f5a"/><stop offset="0.76" stop-color="#11074f"/><stop offset="1" stop-color="#0f054c"/></radialGradient><clipPath id="clip-path"><polygon id="SVGID" class="cls-1" points="889.75 112.98 900.74 119.31 944.5 94.04 944.5 45.45 889.75 77.06 889.75 112.98"/></clipPath></defs><title>yos-laravel-wallet</title><g class="cls-2"><g id="Layer_2" data-name="Layer 2"><g id="Layer_1-2" data-name="Layer 1"><rect class="cls-3" width="1024" height="384"/><g class="cls-4"><path class="cls-5" d="M935.07,347.26c-1-11.11-9.91-24-20-28.69-5-2.37-9.44-2.26-12.44-.15h0l-3.13,2.21h1c-1.56,2.28-2.3,5.5-2,9.49,1,11.11,9.91,23.95,20,28.68,3.47,1.63,6.63,2.09,9.23,1.54v.89l3.18-2.25,0,0,.13-.1h0C934,356.74,935.53,352.72,935.07,347.26Z"/><ellipse class="cls-6" cx="913.62" cy="340.92" rx="14.28" ry="24.73" transform="translate(-30.79 583.85) rotate(-34.89)"/><path class="cls-7" d="M921.36,360.53a15,15,0,0,1-6.32-1.59c-9-4.21-17-15.68-17.84-25.58-.42-4.85.92-8.61,3.76-10.59s6.84-1.94,11.24.13c9,4.21,17,15.69,17.84,25.58.42,4.85-.92,8.61-3.76,10.59A8.45,8.45,0,0,1,921.36,360.53Zm-15.48-38.71a8,8,0,0,0-4.63,1.36c-2.69,1.88-4,5.48-3.55,10.14.83,9.73,8.7,21,17.55,25.17,4.23,2,8,2.05,10.74.17s4-5.48,3.56-10.14c-.84-9.73-8.71-21-17.56-25.17A14.61,14.61,0,0,0,905.88,321.82Z"/></g><g class="cls-8"><polygon class="cls-6" points="128.97 189.08 107.25 176.54 107.25 201.62 128.97 214.16 150.69 201.62 150.69 176.54 128.97 189.08"/><polygon class="cls-6" points="128.97 214.16 107.25 201.62 107.25 176.54 128.97 189.08 128.97 214.16"/><polygon class="cls-9" points="150.69 201.62 128.97 214.16 128.97 189.08 150.69 176.54 150.69 201.62"/><polygon class="cls-6" points="128.97 189.08 107.25 176.54 128.97 164 150.69 176.54 128.97 189.08"/><polygon class="cls-10" points="128.97 189.08 107.25 176.54 107.25 177.63 128.97 190.17 150.69 177.63 150.69 176.54 128.97 189.08"/></g><polygon class="cls-11" points="128.97 173.88 107.25 161.34 128.97 148.8 150.69 161.34 128.97 173.88"/><polygon class="cls-6" points="128.97 129.8 107.25 117.26 107.25 142.34 128.97 154.88 150.69 142.34 150.69 117.26 128.97 129.8"/><polygon class="cls-6" points="128.97 154.88 107.25 142.34 107.25 117.26 128.97 129.8 128.97 154.88"/><polygon class="cls-9" points="150.69 142.34 128.97 154.88 128.97 129.8 150.69 117.26 150.69 142.34"/><polygon class="cls-6" points="128.97 129.8 107.25 117.26 128.97 104.72 150.69 117.26 128.97 129.8"/><polygon class="cls-10" points="128.97 129.8 107.25 117.26 107.25 118.35 128.97 130.89 150.69 118.35 150.69 117.26 128.97 129.8"/><g class="cls-8"><polygon class="cls-6" points="128.97 214.42 107.25 201.88 107.25 226.96 128.97 239.5 150.69 226.96 150.69 201.88 128.97 214.42"/><polygon class="cls-6" points="128.97 239.5 107.25 226.96 107.25 201.88 128.97 214.42 128.97 239.5"/><polygon class="cls-9" points="150.69 226.96 128.97 239.5 128.97 214.42 150.69 201.88 150.69 226.96"/><polygon class="cls-6" points="128.97 214.42 107.25 201.88 128.97 189.34 150.69 201.88 128.97 214.42"/><polygon class="cls-10" points="128.97 214.42 107.25 201.88 107.25 202.97 128.97 215.51 150.69 202.97 150.69 201.88 128.97 214.42"/></g><polygon class="cls-11" points="128.97 199.22 107.25 186.68 128.97 174.14 150.69 186.68 128.97 199.22"/><polygon class="cls-6" points="128.97 155.14 107.25 142.6 107.25 167.68 128.97 180.22 150.69 167.68 150.69 142.6 128.97 155.14"/><polygon class="cls-6" points="128.97 180.22 107.25 167.68 107.25 142.6 128.97 155.14 128.97 180.22"/><polygon class="cls-9" points="150.69 167.68 128.97 180.22 128.97 155.14 150.69 142.6 150.69 167.68"/><polygon class="cls-6" points="128.97 155.14 107.25 142.6 128.97 130.06 150.69 142.6 128.97 155.14"/><polygon class="cls-10" points="128.97 155.14 107.25 142.6 107.25 143.69 128.97 156.23 150.69 143.69 150.69 142.6 128.97 155.14"/><g class="cls-8"><polygon class="cls-6" points="128.97 239.76 107.25 227.22 107.25 252.3 128.97 264.84 150.69 252.3 150.69 227.22 128.97 239.76"/><polygon class="cls-6" points="128.97 264.84 107.25 252.3 107.25 227.22 128.97 239.76 128.97 264.84"/><polygon class="cls-9" points="150.69 252.3 128.97 264.84 128.97 239.76 150.69 227.22 150.69 252.3"/><polygon class="cls-6" points="128.97 239.76 107.25 227.22 128.97 214.68 150.69 227.22 128.97 239.76"/><polygon class="cls-10" points="128.97 239.76 107.25 227.22 107.25 228.31 128.97 240.85 150.69 228.31 150.69 227.22 128.97 239.76"/></g><polygon class="cls-11" points="128.97 224.56 107.25 212.02 128.97 199.48 150.69 212.02 128.97 224.56"/><polygon class="cls-6" points="128.97 180.48 107.25 167.94 107.25 193.02 128.97 205.56 150.69 193.02 150.69 167.94 128.97 180.48"/><polygon class="cls-6" points="128.97 205.56 107.25 193.02 107.25 167.94 128.97 180.48 128.97 205.56"/><polygon class="cls-9" points="150.69 193.02 128.97 205.56 128.97 180.48 150.69 167.94 150.69 193.02"/><polygon class="cls-6" points="128.97 180.48 107.25 167.94 128.97 155.4 150.69 167.94 128.97 180.48"/><polygon class="cls-10" points="128.97 180.48 107.25 167.94 107.25 169.03 128.97 181.57 150.69 169.03 150.69 167.94 128.97 180.48"/><g class="cls-8"><polygon class="cls-6" points="199.14 200.78 177.42 188.24 177.42 213.32 199.14 225.86 220.87 213.32 220.87 188.24 199.14 200.78"/><polygon class="cls-6" points="199.14 225.86 177.42 213.32 177.42 188.24 199.14 200.78 199.14 225.86"/><polygon class="cls-9" points="220.87 213.32 199.14 225.86 199.14 200.78 220.87 188.24 220.87 213.32"/><polygon class="cls-6" points="199.14 200.78 177.42 188.24 199.14 175.7 220.86 188.24 199.14 200.78"/><polygon class="cls-10" points="199.14 200.78 177.42 188.24 177.42 189.32 199.14 201.87 220.86 189.32 220.87 188.24 199.14 200.78"/></g><polygon class="cls-11" points="199.14 185.57 177.42 173.03 199.14 160.49 220.86 173.03 199.14 185.57"/><polygon class="cls-6" points="199.14 141.5 177.42 128.96 177.42 154.04 199.14 166.58 220.87 154.04 220.87 128.96 199.14 141.5"/><polygon class="cls-6" points="199.14 166.58 177.42 154.04 177.42 128.96 199.14 141.5 199.14 166.58"/><polygon class="cls-9" points="220.87 154.04 199.14 166.58 199.14 141.5 220.87 128.96 220.87 154.04"/><polygon class="cls-6" points="199.14 141.5 177.42 128.96 199.14 116.42 220.86 128.96 199.14 141.5"/><polygon class="cls-10" points="199.14 141.5 177.42 128.96 177.42 130.04 199.14 142.58 220.86 130.04 220.87 128.96 199.14 141.5"/><g class="cls-8"><polygon class="cls-6" points="175.75 239.76 154.03 227.22 154.03 252.3 175.75 264.84 197.47 252.3 197.47 227.22 175.75 239.76"/><polygon class="cls-6" points="175.75 264.84 154.03 252.3 154.03 227.22 175.75 239.76 175.75 264.84"/><polygon class="cls-9" points="197.47 252.3 175.75 264.84 175.75 239.76 197.47 227.22 197.47 252.3"/><polygon class="cls-6" points="175.75 239.76 154.03 227.22 175.75 214.68 197.47 227.22 175.75 239.76"/><polygon class="cls-10" points="175.75 239.76 154.03 227.22 154.03 228.31 175.75 240.85 197.47 228.31 197.47 227.22 175.75 239.76"/></g><polygon class="cls-11" points="175.75 224.56 154.03 212.02 175.75 199.48 197.47 212.02 175.75 224.56"/><polygon class="cls-6" points="175.75 180.48 154.03 167.94 154.03 193.02 175.75 205.56 197.47 193.02 197.47 167.94 175.75 180.48"/><polygon class="cls-6" points="175.75 205.56 154.03 193.02 154.03 167.94 175.75 180.48 175.75 205.56"/><polygon class="cls-9" points="197.47 193.02 175.75 205.56 175.75 180.48 197.47 167.94 197.47 193.02"/><polygon class="cls-6" points="175.75 180.48 154.03 167.94 175.75 155.4 197.47 167.94 175.75 180.48"/><polygon class="cls-10" points="175.75 180.48 154.03 167.94 154.03 169.03 175.75 181.57 197.47 169.03 197.47 167.94 175.75 180.48"/><g class="cls-8"><polygon class="cls-6" points="152.36 253.41 130.64 240.87 130.64 265.95 152.36 278.49 174.08 265.95 174.08 240.87 152.36 253.41"/><polygon class="cls-6" points="152.36 278.49 130.64 265.95 130.64 240.87 152.36 253.41 152.36 278.49"/><polygon class="cls-9" points="174.08 265.95 152.36 278.49 152.36 253.41 174.08 240.87 174.08 265.95"/><polygon class="cls-6" points="152.36 253.41 130.64 240.87 152.36 228.33 174.08 240.87 152.36 253.41"/><polygon class="cls-10" points="152.36 253.41 130.64 240.87 130.64 241.96 152.36 254.5 174.08 241.96 174.08 240.87 152.36 253.41"/></g><polygon class="cls-11" points="152.36 238.21 130.64 225.66 152.36 213.12 174.08 225.66 152.36 238.21"/><polygon class="cls-6" points="152.36 194.13 130.64 181.59 130.64 206.67 152.36 219.21 174.08 206.67 174.08 181.59 152.36 194.13"/><polygon class="cls-6" points="152.36 219.21 130.64 206.67 130.64 181.59 152.36 194.13 152.36 219.21"/><polygon class="cls-9" points="174.08 206.67 152.36 219.21 152.36 194.13 174.08 181.59 174.08 206.67"/><polygon class="cls-6" points="152.36 194.13 130.64 181.59 152.36 169.05 174.08 181.59 152.36 194.13"/><polygon class="cls-10" points="152.36 194.13 130.64 181.59 130.64 182.67 152.36 195.22 174.08 182.68 174.08 181.59 152.36 194.13"/><g class="cls-8"><polygon class="cls-6" points="993.94 52.58 982.8 46.15 982.8 59.01 993.94 65.45 1005.08 59.01 1005.08 46.15 993.94 52.58"/><polygon class="cls-6" points="993.94 65.45 982.8 59.01 982.8 46.15 993.94 52.58 993.94 65.45"/><polygon class="cls-9" points="1005.08 59.01 993.94 65.45 993.94 52.58 1005.08 46.15 1005.08 59.01"/><polygon class="cls-6" points="993.94 52.58 982.8 46.15 993.94 39.71 1005.08 46.15 993.94 52.58"/><polygon class="cls-10" points="993.94 52.58 982.8 46.15 982.8 46.7 993.94 53.14 1005.08 46.7 1005.08 46.15 993.94 52.58"/></g><polygon class="cls-11" points="993.94 44.78 982.8 38.35 993.94 31.91 1005.08 38.35 993.94 44.78"/><polygon class="cls-6" points="993.94 22.17 982.8 15.74 982.8 28.6 993.94 35.04 1005.08 28.6 1005.08 15.74 993.94 22.17"/><polygon class="cls-6" points="993.94 35.04 982.8 28.6 982.8 15.74 993.94 22.17 993.94 35.04"/><polygon class="cls-9" points="1005.08 28.6 993.94 35.04 993.94 22.17 1005.08 15.74 1005.08 28.6"/><polygon class="cls-6" points="993.94 22.17 982.8 15.74 993.94 9.3 1005.08 15.74 993.94 22.17"/><polygon class="cls-10" points="993.94 22.17 982.8 15.74 982.8 16.29 993.94 22.73 1005.08 16.29 1005.08 15.74 993.94 22.17"/><g class="cls-8"><polygon class="cls-6" points="227.2 114.19 216.06 107.76 216.06 120.62 227.2 127.06 238.34 120.62 238.34 107.76 227.2 114.19"/><polygon class="cls-6" points="227.2 127.06 216.06 120.62 216.06 107.76 227.2 114.19 227.2 127.06"/><polygon class="cls-9" points="238.34 120.62 227.2 127.06 227.2 114.19 238.34 107.76 238.34 120.62"/><polygon class="cls-6" points="227.2 114.19 216.06 107.76 227.2 101.32 238.34 107.76 227.2 114.19"/><polygon class="cls-10" points="227.2 114.19 216.06 107.76 216.06 108.31 227.2 114.75 238.34 108.31 238.34 107.76 227.2 114.19"/></g><polygon class="cls-11" points="227.2 106.39 216.06 99.96 227.2 93.52 238.34 99.96 227.2 106.39"/><polygon class="cls-6" points="227.2 83.78 216.06 77.34 216.06 90.21 227.2 96.64 238.34 90.21 238.34 77.34 227.2 83.78"/><polygon class="cls-6" points="227.2 96.64 216.06 90.21 216.06 77.34 227.2 83.78 227.2 96.64"/><polygon class="cls-9" points="238.34 90.21 227.2 96.64 227.2 83.78 238.34 77.34 238.34 90.21"/><polygon class="cls-6" points="227.2 83.78 216.06 77.34 227.2 70.91 238.34 77.34 227.2 83.78"/><polygon class="cls-10" points="227.2 83.78 216.06 77.34 216.06 77.9 227.2 84.34 238.34 77.9 238.34 77.34 227.2 83.78"/><g class="cls-8"><polygon class="cls-6" points="32.2 356.19 21.06 349.76 21.06 362.62 32.2 369.06 43.34 362.62 43.34 349.76 32.2 356.19"/><polygon class="cls-6" points="32.2 369.06 21.06 362.62 21.06 349.76 32.2 356.19 32.2 369.06"/><polygon class="cls-9" points="43.34 362.62 32.2 369.06 32.2 356.19 43.34 349.76 43.34 362.62"/><polygon class="cls-6" points="32.2 356.19 21.06 349.76 32.2 343.32 43.34 349.76 32.2 356.19"/><polygon class="cls-10" points="32.2 356.19 21.06 349.76 21.06 350.31 32.2 356.75 43.34 350.31 43.34 349.76 32.2 356.19"/></g><polygon class="cls-11" points="32.2 348.39 21.06 341.96 32.2 335.52 43.34 341.96 32.2 348.39"/><polygon class="cls-6" points="32.2 325.78 21.06 319.35 21.06 332.21 32.2 338.64 43.34 332.21 43.34 319.35 32.2 325.78"/><polygon class="cls-6" points="32.2 338.64 21.06 332.21 21.06 319.35 32.2 325.78 32.2 338.64"/><polygon class="cls-9" points="43.34 332.21 32.2 338.64 32.2 325.78 43.34 319.35 43.34 332.21"/><polygon class="cls-6" points="32.2 325.78 21.06 319.35 32.2 312.91 43.34 319.35 32.2 325.78"/><polygon class="cls-10" points="32.2 325.78 21.06 319.35 21.06 319.9 32.2 326.34 43.34 319.9 43.34 319.35 32.2 325.78"/><path class="cls-5" d="M910.7,295.75c10.82-2.71,22.08-13.59,25.14-24.31,1.54-5.37.73-9.68-1.83-12.31h0l-2.67-2.74.14,1c-2.49-1.18-5.79-1.4-9.68-.43-10.81,2.71-22.07,13.59-25.13,24.32-1.06,3.68-1,6.87,0,9.35l-.88.14,2.72,2.78,0,0,.11.11h0C901.16,296.18,905.38,297.08,910.7,295.75Z"/><ellipse class="cls-6" cx="913.55" cy="273.57" rx="24.73" ry="14.28" transform="translate(66.7 712.04) rotate(-44.04)"/><path class="cls-7" d="M904.51,291.54a9.24,9.24,0,0,1-6.87-2.59c-2.41-2.49-3-6.44-1.66-11.12,2.73-9.54,12.78-19.27,22.42-21.68,4.72-1.18,8.64-.46,11.05,2s3,6.44,1.66,11.11c-2.73,9.55-12.78,19.28-22.41,21.69A17.37,17.37,0,0,1,904.51,291.54Zm18.07-35.44a16.82,16.82,0,0,0-4.06.54C909,259,899.14,268.58,896.46,278c-1.29,4.5-.74,8.28,1.54,10.63s6,3,10.57,1.9c9.48-2.37,19.38-11.94,22.06-21.33,1.29-4.5.74-8.28-1.54-10.64A8.76,8.76,0,0,0,922.58,256.1Z"/><g class="cls-8"><path class="cls-5" d="M897.43,117.4c0-11.15,7.82-24.71,17.48-30.29,4.84-2.79,9.22-3,12.38-1.21h0l3.31,1.93-1,.09c1.74,2.14,2.76,5.28,2.76,9.29,0,11.15-7.83,24.71-17.49,30.28a14.81,14.81,0,0,1-9.06,2.32l.07.88-3.35-2-.05,0-.13-.07h0C899.32,126.76,897.43,122.88,897.43,117.4Z"/><ellipse class="cls-6" cx="918.25" cy="109.26" rx="24.73" ry="14.28" transform="translate(364.49 849.85) rotate(-60)"/></g><path class="cls-12" d="M917.12,135.6c-12.06,0-24.12-2.65-33.31-8-8.93-5.15-13.84-12-13.84-19.33S874.89,94.14,883.82,89c18.36-10.6,48.25-10.6,66.62,0,8.93,5.16,13.84,12,13.84,19.33s-4.91,14.18-13.85,19.33C941.25,133,929.19,135.6,917.12,135.6Zm0-54.23c-12,0-24,2.64-33.14,7.91-8.82,5.09-13.68,11.85-13.68,19s4.86,13.94,13.68,19c18.27,10.55,48,10.55,66.27,0,8.82-5.09,13.68-11.85,13.68-19s-4.86-13.94-13.68-19C941.13,84,929.12,81.37,917.13,81.37Z"/><path class="cls-13" d="M917.12,142.91c-15.3,0-30.61-3.37-42.27-10.09-11.32-6.54-17.55-15.24-17.55-24.51s6.23-18,17.56-24.5c23.3-13.46,61.23-13.46,84.54,0C970.72,90.34,977,99.05,977,108.31s-6.23,18-17.56,24.51C947.74,139.54,932.43,142.91,917.12,142.91Zm0-68.85c-15.25,0-30.49,3.35-42.1,10-11.21,6.47-17.39,15.07-17.39,24.2S863.82,126,875,132.52c23.21,13.4,61,13.4,84.19,0,11.21-6.48,17.39-15.07,17.39-24.21s-6.18-17.73-17.39-24.2C947.62,77.41,932.37,74.06,917.13,74.06Z"/><path class="cls-6" d="M917.12,129.84c-9.5,0-19-2.09-26.25-6.27-7-4.07-10.92-9.49-10.92-15.26s3.88-11.19,10.92-15.25c14.48-8.36,38-8.36,52.51,0,7,4.06,10.92,9.48,10.92,15.25s-3.88,11.19-10.92,15.26C936.14,127.75,926.63,129.84,917.12,129.84Zm0-42.71c-9.45,0-18.89,2.08-26.08,6.23-6.93,4-10.75,9.31-10.75,15s3.82,11,10.75,15c14.38,8.3,37.77,8.3,52.15,0,6.94-4,10.75-9.32,10.75-15s-3.81-11-10.75-15C936,89.21,926.57,87.13,917.13,87.13Z"/><g class="cls-14"><path class="cls-5" d="M897.43,117.4c0-11.15,7.82-24.71,17.48-30.29,4.84-2.79,9.22-3,12.38-1.21h0l3.31,1.93-1,.09c1.74,2.14,2.76,5.28,2.76,9.29,0,11.15-7.83,24.71-17.49,30.28a14.81,14.81,0,0,1-9.06,2.32l.07.88-3.35-2-.05,0-.13-.07h0C899.32,126.76,897.43,122.88,897.43,117.4Z"/><ellipse class="cls-6" cx="918.25" cy="109.26" rx="24.73" ry="14.28" transform="translate(364.49 849.85) rotate(-60)"/><path class="cls-7" d="M911.22,129.85a8.33,8.33,0,0,1-4.23-1.09c-3-1.76-4.73-5.46-4.73-10.41,0-10.1,7.12-22.44,15.87-27.49,4.28-2.48,8.33-2.87,11.39-1.1s4.73,5.46,4.73,10.41c0,10.1-7.12,22.44-15.87,27.49A14.62,14.62,0,0,1,911.22,129.85Zm14.07-40.68a14,14,0,0,0-6.91,2.12c-8.61,5-15.62,17.11-15.62,27.06,0,4.77,1.59,8.31,4.48,10s6.76,1.28,10.89-1.1c8.61-5,15.62-17.12,15.62-27.06,0-4.77-1.59-8.31-4.48-10A7.91,7.91,0,0,0,925.29,89.17Z"/></g><polygon class="cls-6" points="458.54 169.32 447.8 207.03 395.23 171.31 444.74 201.41 458.54 169.32"/><polygon class="cls-6" points="443.07 202.3 436.63 214.68 394.99 171.93 434.87 208.93 440.71 200.55 443.07 202.3"/><path class="cls-6" d="M492.93,210.1c0,.77-.53,1.16-1.59,1.16h-5.48V207.9A16.64,16.64,0,0,1,475,212.18a10.24,10.24,0,0,1-6.15-1.78,6.51,6.51,0,0,1-2.79-5.57,7.24,7.24,0,0,1,4.18-6.62,16.61,16.61,0,0,1,8-1.84,38.41,38.41,0,0,1,7.6.87v-3.79a4.07,4.07,0,0,0-2.45-3.76,10.22,10.22,0,0,0-4.67-1,27.25,27.25,0,0,0-7.66,1.59,5.1,5.1,0,0,1-1.14.28q-1.08,0-1.08-1.17a1,1,0,0,1,.27-.75,9.64,9.64,0,0,1,3.15-1.15,28.77,28.77,0,0,1,6.57-1.16,11.28,11.28,0,0,1,6.26,1.72,6.11,6.11,0,0,1,3.12,5.4v15.48h3.11Q492.93,208.93,492.93,210.1Zm-7.07-5.32v-5.15a26.75,26.75,0,0,0-7.35-.92c-3.37,0-6,.73-8,2.2a4.82,4.82,0,0,0-2.17,3.92,4.34,4.34,0,0,0,2.06,3.87,8,8,0,0,0,4.43,1.14Q480.57,209.84,485.86,204.78Z"/><path class="cls-6" d="M525.3,210.1c0,.77-.53,1.16-1.59,1.16H503c-1,0-1.56-.39-1.56-1.16s.52-1.17,1.56-1.17h9.18V178.7h-6.73q-1.59,0-1.59-1.2t1.59-1.17h9.07v32.6h9.18Q525.3,208.93,525.3,210.1Z"/><path class="cls-6" d="M559.51,210.1c0,.77-.53,1.16-1.59,1.16H537.21c-1,0-1.56-.39-1.56-1.16s.52-1.17,1.56-1.17h9.19V178.7h-6.74c-1.06,0-1.58-.4-1.58-1.2s.52-1.17,1.58-1.17h9.08v32.6h9.18Q559.51,208.93,559.51,210.1Z"/><path class="cls-6" d="M594.47,207.45a1.38,1.38,0,0,1-.45.92,12.56,12.56,0,0,1-5.51,2.87,22.79,22.79,0,0,1-6.24.94,14,14,0,0,1-9.9-3.78,12.68,12.68,0,0,1-4.15-9.69,11.56,11.56,0,0,1,3.92-8.91,13.21,13.21,0,0,1,9.19-3.47,12.58,12.58,0,0,1,9.5,3.78,13.18,13.18,0,0,1,3.58,9.66H570.58a11.2,11.2,0,0,0,3.82,7.35,11.7,11.7,0,0,0,7.87,2.72,15.92,15.92,0,0,0,10.16-3.14,1.6,1.6,0,0,1,.92-.42C594.09,206.28,594.47,206.67,594.47,207.45Zm-2.43-10a10,10,0,0,0-3.68-6.33,11.59,11.59,0,0,0-14.06,0,10.14,10.14,0,0,0-3.69,6.34Z"/><path class="cls-6" d="M629,208.34q0,1.31-4.68,2.76a22.08,22.08,0,0,1-6.6,1.08,10.71,10.71,0,0,1-6.15-1.64,6.2,6.2,0,0,1-2.78-5.45V189.53h-4.31q-1.56,0-1.56-1.2t1.56-1.17h4.31v-6.9q0-1.56,1.17-1.56t1.2,1.56v6.9h12.69q1.56,0,1.56,1.2t-1.56,1.17H611.17v15.56a4.06,4.06,0,0,0,2.08,3.7,8.08,8.08,0,0,0,4.32,1.05,21,21,0,0,0,4.84-.64,15.7,15.7,0,0,0,4.56-1.67,2.14,2.14,0,0,1,.92-.36C628.64,207.17,629,207.56,629,208.34Z"/><path class="cls-10" d="M392.59,355.54c0,.17-.11.25-.33.25H392l-2.13,3.27v2.6h1.28c.22,0,.33.08.33.25s-.11.24-.33.24h-3.05q-.33,0-.33-.24c0-.17.11-.25.33-.25h1.27v-2.6l-2.16-3.27h-.29c-.22,0-.33-.08-.33-.25s.11-.24.33-.24h1.35q.33,0,.33.24c0,.17-.11.25-.33.25h-.49l1.84,2.77,1.8-2.77h-.48c-.22,0-.33-.08-.33-.25s.11-.24.33-.24h1.35Q392.59,355.3,392.59,355.54Z"/><path class="cls-10" d="M399.46,361.35a.3.3,0,0,1-.1.19,2.61,2.61,0,0,1-1.16.61,4.85,4.85,0,0,1-1.31.2,3,3,0,0,1-2.09-.8,2.67,2.67,0,0,1-.87-2,2.42,2.42,0,0,1,.83-1.87,2.76,2.76,0,0,1,1.93-.74,2.66,2.66,0,0,1,2,.8,2.76,2.76,0,0,1,.75,2h-5a2.32,2.32,0,0,0,.8,1.55,2.49,2.49,0,0,0,1.66.58,3.38,3.38,0,0,0,2.14-.67.3.3,0,0,1,.19-.08A.21.21,0,0,1,399.46,361.35Zm-.51-2.11a2.14,2.14,0,0,0-.78-1.34,2.44,2.44,0,0,0-3,0,2.16,2.16,0,0,0-.78,1.34Z"/><path class="cls-10" d="M407.5,361.91q0,.24-.33.24h-.91v-3.88a.88.88,0,0,0-.2-.59.66.66,0,0,0-.55-.28c-.41,0-.82.33-1.25,1v3.26h.41c.22,0,.33.08.33.25s-.11.24-.33.24h-.91V358.3a.94.94,0,0,0-.2-.6.64.64,0,0,0-.55-.3c-.4,0-.82.33-1.27,1v3.26h.42c.22,0,.33.08.33.25s-.11.24-.33.24h-1.33q-.33,0-.33-.24c0-.17.11-.25.33-.25h.42v-4.08h-.42c-.22,0-.33-.09-.33-.25s.11-.25.33-.25h.91v.5a1.78,1.78,0,0,1,1.26-.68,1.24,1.24,0,0,1,1.15.82,1.79,1.79,0,0,1,1.34-.82,1.11,1.11,0,0,1,.85.35,1.41,1.41,0,0,1,.42,1v3.44h.41C407.39,361.66,407.5,361.74,407.5,361.91Z"/><path class="cls-10" d="M413.86,361.35a.26.26,0,0,1-.1.19,2.55,2.55,0,0,1-1.16.61,4.85,4.85,0,0,1-1.31.2,2.94,2.94,0,0,1-2.08-.8,2.64,2.64,0,0,1-.88-2,2.42,2.42,0,0,1,.83-1.87,2.76,2.76,0,0,1,1.93-.74,2.64,2.64,0,0,1,2,.8,2.81,2.81,0,0,1,.76,2h-5a2.37,2.37,0,0,0,.8,1.55,2.5,2.5,0,0,0,1.66.58,3.36,3.36,0,0,0,2.14-.67.3.3,0,0,1,.19-.08A.21.21,0,0,1,413.86,361.35Zm-.51-2.11a2.14,2.14,0,0,0-.78-1.34,2.44,2.44,0,0,0-3,0,2.15,2.15,0,0,0-.77,1.34Z"/><path class="cls-10" d="M421.29,361.91c0,.16-.11.24-.32.24h-1.32c-.23,0-.34-.08-.34-.24s.11-.25.34-.25h.41v-3a1.15,1.15,0,0,0-.42-.92,1.54,1.54,0,0,0-1-.32,1.73,1.73,0,0,0-1.06.35,6.17,6.17,0,0,0-.81.82v3.09h.56c.22,0,.33.08.33.25s-.11.24-.33.24h-1.6q-.33,0-.33-.24c0-.17.11-.25.33-.25h.55v-4.08h-.41c-.22,0-.33-.09-.33-.25s.11-.25.33-.25h.9v.74a2.67,2.67,0,0,1,1.87-.92,1.83,1.83,0,0,1,1.63.82,1.61,1.61,0,0,1,.26.84v3.1H421C421.18,361.66,421.29,361.74,421.29,361.91Z"/><path class="cls-10" d="M428.11,361.91q0,.24-.33.24h-4.36q-.33,0-.33-.24c0-.17.11-.25.33-.25h1.93v-4.08h-1.43c-.22,0-.34-.08-.34-.25s.12-.25.34-.25h1.93v4.58h1.93C428,361.66,428.11,361.74,428.11,361.91Zm-2.28-6.08h-.73v-1.28h.73Z"/><path class="cls-10" d="M443,358.74a4.15,4.15,0,0,1-.37,1.76,3.16,3.16,0,0,1-1.13,1.38,2.68,2.68,0,0,1-3.72-.69,4.24,4.24,0,0,1,0-4.9,2.69,2.69,0,0,1,3.77-.65,3.33,3.33,0,0,1,1.05,1.28A4.22,4.22,0,0,1,443,358.74Zm-.5,0a3.55,3.55,0,0,0-.65-2.09,2.2,2.2,0,0,0-3.71,0,3.7,3.7,0,0,0,0,4.19,2.2,2.2,0,0,0,3.71,0A3.56,3.56,0,0,0,442.5,358.74Z"/><path class="cls-10" d="M450.1,359.46a2.44,2.44,0,0,1-.77,1.83,2.55,2.55,0,0,1-1.86.74,2.58,2.58,0,0,1-2.14-1.07v3h1.2c.22,0,.33.09.33.25s-.11.25-.33.25h-2.35c-.22,0-.33-.09-.33-.25s.11-.25.33-.25h.66v-6.34h-.66c-.22,0-.33-.09-.33-.25s.11-.25.33-.25h1.15v.9a2.71,2.71,0,0,1,3.46-.75,2.42,2.42,0,0,1,1,1A2.52,2.52,0,0,1,450.1,359.46Zm-.5,0A1.94,1.94,0,0,0,449,358a2.11,2.11,0,0,0-1.51-.6,2.13,2.13,0,0,0-1.5.59,2,2,0,0,0,0,2.95,2.23,2.23,0,0,0,3,0A2,2,0,0,0,449.6,359.46Z"/><path class="cls-10" d="M457.07,361.35a.3.3,0,0,1-.1.19,2.61,2.61,0,0,1-1.16.61,4.85,4.85,0,0,1-1.31.2,3,3,0,0,1-2.09-.8,2.67,2.67,0,0,1-.87-2,2.42,2.42,0,0,1,.83-1.87,2.76,2.76,0,0,1,1.93-.74,2.66,2.66,0,0,1,2,.8,2.76,2.76,0,0,1,.75,2h-5a2.32,2.32,0,0,0,.8,1.55,2.49,2.49,0,0,0,1.66.58,3.38,3.38,0,0,0,2.14-.67.3.3,0,0,1,.19-.08A.21.21,0,0,1,457.07,361.35Zm-.51-2.11a2.14,2.14,0,0,0-.78-1.34,2.44,2.44,0,0,0-3,0,2.16,2.16,0,0,0-.78,1.34Z"/><path class="cls-10" d="M464.5,361.91q0,.24-.33.24h-1.32q-.33,0-.33-.24c0-.17.11-.25.33-.25h.41v-3a1.15,1.15,0,0,0-.42-.92,1.52,1.52,0,0,0-1-.32,1.75,1.75,0,0,0-1.06.35,6.27,6.27,0,0,0-.8.82v3.09h.56c.22,0,.33.08.33.25s-.11.24-.33.24H459q-.33,0-.33-.24c0-.17.11-.25.33-.25h.56v-4.08h-.42c-.22,0-.33-.09-.33-.25s.11-.25.33-.25H460v.74a2.67,2.67,0,0,1,1.87-.92,1.82,1.82,0,0,1,1.62.82,1.54,1.54,0,0,1,.27.84v3.1h.41C464.39,361.66,464.5,361.74,464.5,361.91Z"/><path class="cls-10" d="M478.51,360.31a1.78,1.78,0,0,1-.78,1.53,2.84,2.84,0,0,1-1.71.51,2.7,2.7,0,0,1-2-.81v.29c0,.21-.08.32-.25.32s-.24-.11-.24-.32v-1.36c0-.23.08-.34.24-.34s.24.1.25.3a1.3,1.3,0,0,0,.73,1.09,2.65,2.65,0,0,0,1.32.34,2.4,2.4,0,0,0,1.35-.38,1.36,1.36,0,0,0,.65-1.18,1.21,1.21,0,0,0-.82-1.17,5,5,0,0,0-1.17-.27,4.54,4.54,0,0,1-1.56-.49,1.48,1.48,0,0,1-.74-1.34,1.7,1.7,0,0,1,.71-1.41,2.48,2.48,0,0,1,1.54-.48,2.6,2.6,0,0,1,1.77.65v-.16c0-.22.09-.33.25-.33s.25.11.25.33v1.25c0,.22-.08.33-.25.33s-.23-.1-.25-.3a1.16,1.16,0,0,0-.61-1,2.13,2.13,0,0,0-1.14-.32,2,2,0,0,0-1.2.35,1.2,1.2,0,0,0-.58,1.06,1.07,1.07,0,0,0,.49.92,3.78,3.78,0,0,0,1.39.43,5.85,5.85,0,0,1,1.38.34A1.6,1.6,0,0,1,478.51,360.31Z"/><path class="cls-10" d="M486,359.63a2.6,2.6,0,0,1-.81,1.93,2.68,2.68,0,0,1-1.94.79,2.72,2.72,0,0,1-1.95-.79,2.7,2.7,0,0,1,0-3.86,2.69,2.69,0,0,1,1.95-.8,2.65,2.65,0,0,1,1.94.8A2.58,2.58,0,0,1,486,359.63Zm-.5,0a2.11,2.11,0,0,0-.66-1.58,2.28,2.28,0,0,0-3.19,0,2.22,2.22,0,0,0,0,3.16,2.28,2.28,0,0,0,3.19,0A2.13,2.13,0,0,0,485.45,359.63Z"/><path class="cls-10" d="M493.32,361.91q0,.24-.33.24h-.91v-.72a3.19,3.19,0,0,1-2.18.92,1.44,1.44,0,0,1-1.09-.39,1.7,1.7,0,0,1-.49-1.21v-3.17h-.66c-.22,0-.33-.09-.33-.25s.11-.25.33-.25h1.15v3.67a1.09,1.09,0,0,0,.3.79,1,1,0,0,0,.77.32,2.94,2.94,0,0,0,2.2-1.11v-3.17h-.91c-.22,0-.33-.09-.33-.25s.11-.25.33-.25h1.4v4.58H493C493.21,361.66,493.32,361.74,493.32,361.91Z"/><path class="cls-10" d="M500.52,357.7c0,.17-.08.26-.25.26a.44.44,0,0,1-.26-.15,1,1,0,0,0-.65-.36,2.43,2.43,0,0,0-1.27.59q-.29.22-1.08.93v2.69h2.18c.22,0,.33.08.33.25s-.11.24-.33.24h-3.86q-.33,0-.33-.24c0-.15.11-.23.33-.23h1.19v-4.1h-.91c-.22,0-.33-.09-.33-.25s.11-.25.33-.25H497v1.24a11.5,11.5,0,0,1,1.06-.88,2.32,2.32,0,0,1,1.26-.48,1.58,1.58,0,0,1,.74.24C500.37,357.38,500.52,357.54,500.52,357.7Z"/><path class="cls-10" d="M507.64,361.08c0,.17-.2.38-.59.64a3.8,3.8,0,0,1-2.13.63,2.67,2.67,0,0,1-1.95-.75,2.61,2.61,0,0,1-.77-1.94,2.68,2.68,0,0,1,.78-2,2.65,2.65,0,0,1,2-.79,2.77,2.77,0,0,1,1.9.68v-.17c0-.22.08-.33.25-.33s.25.11.25.33v1.12c0,.22-.08.33-.25.33s-.23-.1-.25-.29a1.1,1.1,0,0,0-.73-.9,2.71,2.71,0,0,0-1.2-.27,2.15,2.15,0,0,0-1.61.63,2.23,2.23,0,0,0-.62,1.63,2.09,2.09,0,0,0,.64,1.59,2.25,2.25,0,0,0,1.61.61,3.1,3.1,0,0,0,2.25-.9.36.36,0,0,1,.21-.11A.21.21,0,0,1,507.64,361.08Z"/><path class="cls-10" d="M514.67,361.35a.28.28,0,0,1-.09.19,2.61,2.61,0,0,1-1.16.61,4.85,4.85,0,0,1-1.31.2,3,3,0,0,1-2.09-.8,2.67,2.67,0,0,1-.87-2,2.39,2.39,0,0,1,.83-1.87,2.76,2.76,0,0,1,1.93-.74,2.66,2.66,0,0,1,2,.8,2.76,2.76,0,0,1,.75,2h-5a2.32,2.32,0,0,0,.8,1.55,2.49,2.49,0,0,0,1.66.58,3.4,3.4,0,0,0,2.14-.67.3.3,0,0,1,.19-.08C514.6,361.11,514.67,361.19,514.67,361.35Zm-.5-2.11a2.14,2.14,0,0,0-.78-1.34,2.44,2.44,0,0,0-3,0,2.12,2.12,0,0,0-.78,1.34Z"/><path class="cls-10" d="M528.29,354.53l-3,11.54h-.72l3-11.54Z"/><path class="cls-10" d="M543.32,361.91q0,.24-.33.24h-4.36q-.33,0-.33-.24c0-.17.11-.25.33-.25h1.93V355.3h-1.42c-.22,0-.33-.09-.33-.25s.11-.25.33-.25h1.91v6.86H543C543.21,361.66,543.32,361.74,543.32,361.91Z"/><path class="cls-10" d="M550.91,361.91q0,.24-.33.24h-1.16v-.7a3.5,3.5,0,0,1-2.29.9,2.17,2.17,0,0,1-1.3-.38,1.35,1.35,0,0,1-.58-1.17,1.51,1.51,0,0,1,.88-1.39,3.46,3.46,0,0,1,1.69-.39,8.24,8.24,0,0,1,1.6.18v-.8a.86.86,0,0,0-.51-.79,2.19,2.19,0,0,0-1-.21,5.49,5.49,0,0,0-1.61.34.82.82,0,0,1-.24.05.24.24,0,0,1-.17-.4,1.85,1.85,0,0,1,.66-.24,6.33,6.33,0,0,1,1.38-.25,2.38,2.38,0,0,1,1.32.37,1.27,1.27,0,0,1,.66,1.13v3.26h.66C550.8,361.66,550.91,361.74,550.91,361.91Zm-1.49-1.12v-1.08a5.55,5.55,0,0,0-1.55-.2,2.74,2.74,0,0,0-1.67.46,1,1,0,0,0-.46.83.94.94,0,0,0,.43.82,1.7,1.7,0,0,0,.94.24A3.34,3.34,0,0,0,549.42,360.79Z"/><path class="cls-10" d="M558.13,357.7c0,.17-.08.26-.25.26a.44.44,0,0,1-.26-.15,1,1,0,0,0-.65-.36,2.43,2.43,0,0,0-1.27.59q-.29.22-1.08.93v2.69h2.18c.22,0,.33.08.33.25s-.11.24-.33.24h-3.86q-.33,0-.33-.24c0-.15.11-.23.33-.23h1.19v-4.1h-.91c-.22,0-.33-.09-.33-.25s.11-.25.33-.25h1.4v1.24a11.5,11.5,0,0,1,1.06-.88,2.32,2.32,0,0,1,1.26-.48,1.58,1.58,0,0,1,.74.24C558,357.38,558.13,357.54,558.13,357.7Z"/><path class="cls-10" d="M565.31,361.91q0,.24-.33.24h-1.16v-.7a3.5,3.5,0,0,1-2.29.9,2.14,2.14,0,0,1-1.29-.38,1.36,1.36,0,0,1-.59-1.17,1.51,1.51,0,0,1,.88-1.39,3.46,3.46,0,0,1,1.69-.39,8.15,8.15,0,0,1,1.6.18v-.8a.86.86,0,0,0-.51-.79,2.16,2.16,0,0,0-1-.21,5.56,5.56,0,0,0-1.61.34.82.82,0,0,1-.24.05.24.24,0,0,1-.17-.4,2,2,0,0,1,.66-.24,6.3,6.3,0,0,1,1.39-.25,2.43,2.43,0,0,1,1.32.37,1.28,1.28,0,0,1,.65,1.13v3.26H565C565.2,361.66,565.31,361.74,565.31,361.91Zm-1.49-1.12v-1.08a5.53,5.53,0,0,0-1.54-.2,2.79,2.79,0,0,0-1.68.46,1,1,0,0,0-.46.83.92.92,0,0,0,.44.82,1.65,1.65,0,0,0,.93.24A3.34,3.34,0,0,0,563.82,360.79Z"/><path class="cls-10" d="M572.86,357.33c0,.17-.11.25-.32.25H572l-2,4.57h-.83l-2-4.57h-.51c-.22,0-.33-.09-.33-.25s.11-.25.33-.25h1.85c.22,0,.33.08.33.25s-.11.25-.33.25h-.82l1.81,4.08h.22l1.76-4.08h-.82c-.21,0-.32-.09-.32-.25s.11-.25.32-.25h1.86C572.75,357.08,572.86,357.16,572.86,357.33Z"/><path class="cls-10" d="M579.49,361.35a.3.3,0,0,1-.1.19,2.61,2.61,0,0,1-1.16.61,4.85,4.85,0,0,1-1.31.2,3,3,0,0,1-2.09-.8,2.67,2.67,0,0,1-.87-2,2.42,2.42,0,0,1,.83-1.87,2.76,2.76,0,0,1,1.93-.74,2.66,2.66,0,0,1,2,.8,2.76,2.76,0,0,1,.75,2h-5a2.32,2.32,0,0,0,.8,1.55,2.49,2.49,0,0,0,1.66.58,3.38,3.38,0,0,0,2.14-.67.3.3,0,0,1,.19-.08A.21.21,0,0,1,579.49,361.35Zm-.51-2.11a2.14,2.14,0,0,0-.78-1.34,2.44,2.44,0,0,0-3,0,2.16,2.16,0,0,0-.78,1.34Z"/><path class="cls-10" d="M586.53,361.91c0,.16-.11.24-.34.24h-4.36c-.21,0-.32-.08-.32-.24s.11-.25.32-.25h1.94V355.3h-1.42c-.22,0-.33-.09-.33-.25s.11-.25.33-.25h1.91v6.86h1.93C586.42,361.66,586.53,361.74,586.53,361.91Z"/><path class="cls-10" d="M593.9,359h-5.29v-.61h5.29Z"/><path class="cls-10" d="M601.68,357.33c0,.17-.11.25-.33.25h-.24l-1,4.57h-.61L598.42,359l-1.08,3.16h-.61l-1-4.57h-.24c-.22,0-.33-.09-.33-.25s.11-.25.33-.25h1.35c.22,0,.33.08.33.25s-.11.25-.33.25h-.62l.87,3.9,1-3.12h.58l1.08,3.12.84-3.9H600c-.22,0-.33-.09-.33-.25s.11-.25.33-.25h1.35C601.57,357.08,601.68,357.16,601.68,357.33Z"/><path class="cls-10" d="M608.52,361.91c0,.16-.11.24-.34.24H607v-.7a3.5,3.5,0,0,1-2.29.9,2.17,2.17,0,0,1-1.3-.38,1.35,1.35,0,0,1-.58-1.17,1.51,1.51,0,0,1,.88-1.39,3.43,3.43,0,0,1,1.69-.39,8.24,8.24,0,0,1,1.6.18v-.8a.85.85,0,0,0-.52-.79,2.12,2.12,0,0,0-1-.21,5.49,5.49,0,0,0-1.61.34.82.82,0,0,1-.24.05.24.24,0,0,1-.17-.4,1.85,1.85,0,0,1,.66-.24,6.33,6.33,0,0,1,1.38-.25,2.38,2.38,0,0,1,1.32.37,1.27,1.27,0,0,1,.66,1.13v3.26h.65C608.41,361.66,608.52,361.74,608.52,361.91ZM607,360.79v-1.08a5.55,5.55,0,0,0-1.55-.2,2.74,2.74,0,0,0-1.67.46,1,1,0,0,0-.46.83.94.94,0,0,0,.43.82,1.7,1.7,0,0,0,.94.24A3.34,3.34,0,0,0,607,360.79Z"/><path class="cls-10" d="M615.33,361.91q0,.24-.33.24h-4.36q-.33,0-.33-.24c0-.17.11-.25.33-.25h1.93V355.3h-1.41c-.23,0-.34-.09-.34-.25s.11-.25.34-.25h1.91v6.86H615C615.22,361.66,615.33,361.74,615.33,361.91Z"/><path class="cls-10" d="M622.53,361.91q0,.24-.33.24h-4.36q-.33,0-.33-.24c0-.17.11-.25.33-.25h1.93V355.3h-1.41c-.23,0-.34-.09-.34-.25s.11-.25.34-.25h1.91v6.86h1.93C622.42,361.66,622.53,361.74,622.53,361.91Z"/><path class="cls-10" d="M629.89,361.35a.28.28,0,0,1-.09.19,2.67,2.67,0,0,1-1.16.61,4.91,4.91,0,0,1-1.31.2,3,3,0,0,1-2.09-.8,2.67,2.67,0,0,1-.87-2,2.41,2.41,0,0,1,.82-1.87,2.78,2.78,0,0,1,1.94-.74,2.66,2.66,0,0,1,2,.8,2.76,2.76,0,0,1,.75,2h-5a2.32,2.32,0,0,0,.8,1.55,2.49,2.49,0,0,0,1.66.58,3.4,3.4,0,0,0,2.14-.67.28.28,0,0,1,.19-.08C629.82,361.11,629.89,361.19,629.89,361.35Zm-.51-2.11a2.09,2.09,0,0,0-.77-1.34,2.34,2.34,0,0,0-1.48-.5,2.3,2.3,0,0,0-1.48.5,2.12,2.12,0,0,0-.78,1.34Z"/><path class="cls-10" d="M637.17,361.54c0,.18-.33.38-1,.58a4.7,4.7,0,0,1-1.39.23,2.25,2.25,0,0,1-1.29-.35,1.3,1.3,0,0,1-.59-1.15v-3.27H632c-.22,0-.33-.09-.33-.25s.11-.25.33-.25h.91v-1.45c0-.22.08-.33.25-.33s.25.11.25.33v1.45h2.67c.22,0,.33.08.33.25s-.11.25-.33.25h-2.67v3.27a.85.85,0,0,0,.44.78,1.68,1.68,0,0,0,.91.23,4.51,4.51,0,0,0,1-.14,3.41,3.41,0,0,0,1-.35.45.45,0,0,1,.19-.08A.22.22,0,0,1,637.17,361.54Z"/></g></g></g></svg>